<?xml version="1.0" standalone="no"?>
<!DOCTYPE svg PUBLIC "-//W3C//DTD SVG 20010904//EN"
 "http://www.w3.org/TR/2001/REC-SVG-20010904/DTD/svg10.dtd">
<svg version="1.0" xmlns="http://www.w3.org/2000/svg"
 width="1090.000000pt" height="1280.000000pt" viewBox="0 0 1090.000000 1280.000000"
 preserveAspectRatio="xMidYMid meet">
<metadata>
Created by potrace 1.15, written by Peter Selinger 2001-2017
</metadata>
<g transform="translate(0.000000,1280.000000) scale(0.100000,-0.100000)"
fill="#000000" stroke="none">
<path d="M5298 11995 c-1 -1 -347 -5 -768 -9 -890 -7 -1215 -12 -1505 -26
-115 -5 -316 -12 -445 -15 -381 -8 -420 -32 -435 -268 -8 -136 -35 -215 -94
-274 -25 -25 -59 -52 -76 -60 -16 -9 -43 -26 -58 -39 -15 -13 -44 -26 -65 -29
-107 -18 -218 -51 -242 -72 -16 -13 -32 -41 -38 -65 -11 -42 -22 -434 -24
-846 -1 -177 1 -206 16 -220 13 -14 45 -17 185 -20 l168 -4 21 -67 c15 -47 26
-125 37 -270 8 -112 22 -268 31 -345 15 -136 21 -202 43 -441 6 -60 15 -155
20 -210 6 -55 17 -174 25 -265 9 -91 20 -208 26 -260 16 -153 38 -374 50 -520
6 -74 20 -223 31 -330 20 -187 36 -350 43 -435 2 -22 9 -76 15 -120 6 -44 25
-226 42 -405 16 -179 36 -392 44 -475 8 -82 17 -179 20 -215 3 -36 10 -105 15
-155 10 -89 21 -241 40 -550 11 -175 21 -287 45 -500 9 -77 19 -192 24 -256 4
-64 11 -121 15 -127 3 -6 11 -93 16 -194 6 -101 22 -295 35 -433 14 -137 30
-328 35 -424 6 -95 13 -177 15 -182 6 -9 11 -56 20 -189 9 -139 24 -292 40
-405 8 -55 19 -158 25 -230 6 -71 18 -175 26 -230 14 -92 27 -228 54 -570 22
-269 71 -537 106 -576 8 -9 29 -20 47 -24 74 -16 485 -41 912 -55 176 -5 363
-13 415 -16 130 -9 1271 -11 1505 -2 105 3 341 9 525 12 184 3 382 8 440 11
109 6 142 8 425 25 712 42 1063 99 1117 182 11 16 22 97 37 263 12 132 30 323
41 425 11 102 25 246 30 320 5 74 16 205 25 290 8 85 20 211 25 280 6 69 15
179 21 245 5 66 14 183 19 260 5 77 14 196 20 265 6 69 12 168 14 220 4 115
21 319 41 495 8 72 21 222 30 335 22 283 54 659 60 695 3 17 9 109 15 205 6
96 19 290 30 430 10 140 24 329 30 420 6 91 17 233 25 315 8 83 20 223 25 313
6 89 18 204 26 255 27 175 52 413 69 652 9 132 23 301 31 375 20 174 32 330
44 555 13 256 29 487 39 580 5 44 12 125 16 180 3 55 12 179 20 275 8 96 19
238 25 315 9 105 18 160 39 220 l27 80 137 6 c175 9 182 11 206 58 18 34 19
47 11 127 -5 49 -10 195 -11 324 0 129 -4 316 -8 416 -7 163 -10 184 -30 218
-31 49 -87 76 -195 92 -116 18 -185 51 -259 128 -85 87 -101 122 -132 281 -43
226 -45 229 -112 246 -90 23 -599 32 -1960 35 -787 1 -1433 1 -1435 -1z"/>
</g>
</svg>
