<?xml version="1.0" standalone="no"?>
<!DOCTYPE svg PUBLIC "-//W3C//DTD SVG 20010904//EN"
 "http://www.w3.org/TR/2001/REC-SVG-20010904/DTD/svg10.dtd">
<svg version="1.0" xmlns="http://www.w3.org/2000/svg"
 width="1200.000000pt" height="800.000000pt" viewBox="0 0 1200.000000 800.000000"
 preserveAspectRatio="xMidYMid meet">

<g transform="translate(0.000000,800.000000) scale(0.100000,-0.100000)"
fill="#000000" stroke="none">
<path d="M4 6459 c3 -849 9 -1641 12 -1759 4 -142 2 -245 -6 -303 -7 -49 -10
-90 -8 -92 2 -3 60 7 129 20 209 42 293 43 509 4 163 -29 206 -33 365 -34 162
0 187 2 245 23 85 29 130 67 182 155 24 39 57 86 75 104 18 18 102 67 186 109
l152 78 155 151 c183 178 216 205 307 248 62 29 77 32 164 32 91 0 99 -2 175
-39 70 -35 98 -58 249 -210 179 -181 224 -213 330 -241 111 -29 178 -16 255
48 28 23 69 56 90 73 23 19 78 45 137 64 131 44 151 55 293 160 154 116 200
143 277 169 70 24 168 27 241 10 79 -19 207 -84 257 -130 27 -24 79 -82 118
-129 81 -98 95 -112 199 -185 42 -30 91 -75 109 -100 l33 -46 51 6 c117 14
123 16 129 38 22 91 13 542 -15 706 -14 82 -26 105 -90 178 -62 70 -85 113
-94 176 -9 58 -1 68 100 137 170 115 451 227 704 281 137 28 343 36 450 16
157 -30 275 -107 326 -211 18 -38 27 -78 35 -161 12 -138 13 -143 95 -301 l67
-131 -16 -185 -16 -185 30 -249 c43 -356 36 -324 76 -324 32 0 42 10 169 170
81 102 147 175 163 182 35 15 231 14 352 -2 134 -17 377 -66 474 -96 l81 -26
120 -123 c155 -160 207 -186 330 -164 87 15 157 58 192 116 42 71 39 185 -10
395 -44 185 -55 287 -38 353 10 38 33 71 122 171 61 69 119 128 128 133 19 11
323 103 401 122 87 22 397 19 483 -5 294 -79 520 -284 656 -594 23 -51 39
-122 66 -282 41 -243 44 -252 199 -533 52 -95 105 -194 118 -222 21 -46 27
-51 73 -63 150 -39 432 26 743 173 l112 54 0 1900 0 1901 -1552 0 c-854 0
-3555 3 -6001 7 l-4449 6 6 -1544z"/>
</g>
</svg>
